<svg width="50" height="50" viewBox="0 0 50 50" fill="none" xmlns="http://www.w3.org/2000/svg">
<rect width="50" height="50" fill="white"/>
<path d="M38.2061 12.1998H22.1091L18.0849 8H8.02424C5.81091 8 4 9.88989 4 12.1998V37.3983C4 39.7082 5.81091 41.5981 8.02424 41.5981H39.2121C40.9224 41.5981 42.2303 40.2331 42.2303 38.4482V16.3995C42.2303 14.0896 40.4194 12.1998 38.2061 12.1998Z" fill="#0081E8"/>
<path d="M42.4307 18.4978H15.3677C13.4562 18.4978 11.7459 19.9677 11.444 21.9626L8.02344 41.5965H39.9156C41.8271 41.5965 43.5374 40.1265 43.8392 38.1317L46.3544 23.4325C46.8574 20.9127 44.9459 18.4978 42.4307 18.4978Z" fill="#C8DFF5"/>
</svg>
