<svg width="50" height="50" viewBox="0 0 50 50" fill="none" xmlns="http://www.w3.org/2000/svg">
<g id="Frame 14407">
<rect width="50" height="50" fill="white"/>
<g id="Group 10336">
<path id="Vector" d="M48.604 19.41C48.604 17.6508 47.233 16.2115 45.5574 16.2115H40.9874C40.4542 16.2115 40.1495 15.5718 40.4542 15.092C40.9112 14.2923 41.1397 13.3328 40.9112 12.2933C40.6065 10.694 39.464 9.4146 38.0169 9.09475C35.5034 8.53501 33.3707 10.5341 33.3707 13.0129C33.3707 13.8126 33.5992 14.4523 33.9039 15.092C34.2085 15.5718 33.9039 16.2115 33.2945 16.2115H28.7245C27.0489 16.2115 25.6779 17.6508 25.6779 19.41V25.0074C25.6779 25.5671 26.2872 25.887 26.7442 25.5671C27.5059 25.0874 28.4199 24.8475 29.41 25.0874C30.9334 25.4072 32.152 26.6067 32.4567 28.126C32.9899 30.6848 31.0857 33.0037 28.7245 33.0037C27.9629 33.0037 27.3536 32.7638 26.7442 32.444C26.3634 32.1241 25.7541 32.444 25.7541 33.0037V37.8015C25.7541 39.5607 27.1251 41 28.8007 41H45.5574C47.233 41 48.604 39.5607 48.604 37.8015V19.41Z" fill="#0081E8"/>
<path id="Vector_2" d="M22.5633 16.9311C24.239 16.9311 25.61 18.3705 25.61 20.1296L25.61 24.9274C25.61 25.4872 26.2193 25.807 26.6763 25.4872C27.438 25.0074 28.352 24.7675 29.3421 25.0074C30.8654 25.3272 32.0841 26.5267 32.3888 28.046C32.9219 30.6848 31.0178 32.9237 28.6566 32.9237C27.895 32.9237 27.2856 32.6838 26.6763 32.364C26.2193 32.0441 25.61 32.364 25.61 33.0037L25.61 37.8015C25.61 39.5607 24.239 41 22.5633 41L17.2316 41C16.6985 41 16.3938 40.3603 16.6985 39.8805C17.1555 39.0809 17.384 38.1213 17.1555 37.0818C16.8508 35.4826 15.7083 34.2031 14.2611 33.8833C11.8238 33.3235 9.61498 35.3226 9.61498 37.8015C9.61498 38.6011 9.84348 39.2408 10.1481 39.8805C10.4528 40.2803 10.1481 40.92 9.61498 40.92L5.04498 40.92C3.36932 40.92 1.99832 39.4807 1.99832 37.7215L1.99832 20.1296C1.99832 18.3705 3.36932 16.9311 5.04498 16.9311L22.5633 16.9311Z" fill="#DCEEFF"/>
</g>
</g>
</svg>
