<svg width="50" height="50" viewBox="0 0 50 50" fill="none" xmlns="http://www.w3.org/2000/svg">
<rect width="50" height="50" fill="white"/>
<path d="M3.36325 36.7928V11.9655C3.36325 9.23446 5.49163 7 8.09297 7H41.201C43.8024 7 45.9308 9.23446 45.9308 11.9655V36.7928C45.9308 39.5238 43.8024 41.7583 41.201 41.7583H8.09297C5.49163 41.7583 3.36325 39.5238 3.36325 36.7928Z" fill="#0081E8"/>
<path d="M41.2016 10.7246H8.09353C7.38407 10.7246 6.9111 11.2212 6.9111 11.966V36.7933C6.9111 37.5382 7.38407 38.0347 8.09353 38.0347H41.2016C41.911 38.0347 42.384 37.5382 42.384 36.7933V11.966C42.384 11.2212 41.911 10.7246 41.2016 10.7246Z" fill="#DCEEFF"/>
<path d="M43.5675 43.0003H5.72972C3.12838 43.0003 1 40.7658 1 38.0348H48.2972C48.2972 40.7658 46.1689 43.0003 43.5675 43.0003Z" fill="#0081E8"/>
<path d="M32.7045 16.0522L22.1624 27.02L17.8215 22.5039L15.6511 24.7619L22.1624 31.5361L34.875 18.3103L32.7045 16.0522Z" fill="#0081E8"/>
</svg>
